<svg width="1760" height="990" xmlns="http://www.w3.org/2000/svg" xmlns:xlink="http://www.w3.org/1999/xlink" overflow="hidden"><defs><clipPath id="clip0"><rect x="1320" y="742" width="1760" height="990"/></clipPath></defs><g clip-path="url(#clip0)" transform="translate(-1320 -742)"><path d="M1983.44 1035.39 1987.83 1035.39 2146.23 1035.39 2150.63 1035.39 2150.63 1036.04 2158.11 1037.15 2164.71 1041.11 2169.11 1047.27 2170.43 1058.71 2169.11 1070.14 2164.71 1076.3 2158.11 1080.26 2150.63 1081.1 2150.63 1081.58 2146.23 1081.58 2026.49 1081.58 2079.94 1184.99 2146.23 1184.99 2150.63 1184.99 2150.63 1185.64 2158.11 1186.75 2164.71 1190.71 2169.11 1196.87 2170.43 1208.31 2169.11 1219.74 2164.71 1225.9 2158.11 1229.86 2150.63 1230.7 2150.63 1231.18 2146.23 1231.18 2080.17 1231.18 2011.28 1364.45 2010.71 1369.34 2006.31 1375.5 1999.71 1379.46 1987.83 1380.78 1975.96 1379.46 1969.36 1375.5 1964.96 1369.34 1963.64 1357.91 1964.96 1346.47 1969.36 1340.31 1973.15 1338.03 2040.21 1208.31 1973.15 1078.58 1969.36 1076.3 1964.96 1070.14 1963.64 1058.71 1964.96 1047.27 1969.36 1041.11 1975.96 1037.15 1983.44 1036.04Z" stroke="#ED7D31" stroke-width="8" stroke-linecap="butt" stroke-linejoin="round" stroke-miterlimit="10" stroke-opacity="1" fill="#FFFF00" fill-rule="evenodd" fill-opacity="1"/><text fill="#000000" fill-opacity="0" font-family="Arial,Arial_MSFontService,sans-serif" font-size="345.395" direction="ltr" writing-mode="lr-tb" x="1963.64" y="1337.61">F</text><path d="M2348.24 1081.58 2403.47 1188.43 2407.26 1190.71 2411.66 1196.87 2412.98 1208.31 2411.66 1219.74 2407.26 1225.9 2403.47 1228.18 2348.46 1334.59 2375.88 1334.59 2441.16 1208.31 2375.65 1081.58ZM2305.19 1035.39 2309.58 1035.39 2388.78 1035.39 2393.18 1035.39 2393.18 1036.04 2400.66 1037.15 2407.26 1041.11 2411.66 1047.27 2412.23 1052.16 2482.67 1188.43 2486.46 1190.71 2490.86 1196.87 2492.18 1208.31 2490.86 1219.74 2486.46 1225.9 2482.67 1228.18 2412.23 1364.45 2411.66 1369.34 2407.26 1375.5 2400.66 1379.46 2393.18 1380.3 2393.18 1380.78 2388.78 1380.78 2309.58 1380.78 2305.19 1380.78 2305.19 1380.3 2297.71 1379.46 2291.11 1375.5 2286.71 1369.34 2285.39 1357.91 2286.71 1346.47 2291.11 1340.31 2294.9 1338.03 2361.96 1208.31 2294.9 1078.58 2291.11 1076.3 2286.71 1070.14 2285.39 1058.71 2286.71 1047.27 2291.11 1041.11 2297.71 1037.15 2305.19 1036.04Z" stroke="#ED7D31" stroke-width="8" stroke-linecap="butt" stroke-linejoin="round" stroke-miterlimit="10" stroke-opacity="1" fill="#FFFF00" fill-rule="evenodd" fill-opacity="1"/><text fill="#000000" fill-opacity="0" font-family="Arial,Arial_MSFontService,sans-serif" font-size="345.395" direction="ltr" writing-mode="lr-tb" x="2285.39" y="1337.61">D</text><path d="M2148.71 1035.39 2160.59 1037.15 2167.19 1041.11 2171.59 1047.27 2172.15 1052.16 2242.6 1188.43 2246.39 1190.71 2247.71 1192.56 2249.03 1190.71 2255.63 1186.75 2267.51 1184.99 2268.29 1185.1 2213.22 1078.58 2209.43 1076.3 2205.03 1070.14 2203.71 1058.71 2205.03 1047.27 2209.43 1041.11 2216.03 1037.15 2227.91 1035.39 2239.79 1037.15 2246.39 1041.11 2250.79 1047.27 2251.35 1052.16 2321.8 1188.43 2325.59 1190.71 2329.99 1196.87 2331.31 1208.31 2329.99 1219.74 2325.59 1225.9 2321.8 1228.18 2252.12 1362.97 2251.17 1366.7 2251.09 1366.69 2250.79 1369.34 2246.39 1375.5 2239.79 1379.46 2227.91 1380.78 2216.03 1379.46 2209.43 1375.5 2205.03 1369.34 2203.71 1357.91 2205.03 1346.47 2207.98 1342.35 2216.43 1309.05 2172 1365.76 2171.59 1369.34 2167.19 1375.5 2160.59 1379.46 2148.71 1380.78 2136.83 1379.46 2130.23 1375.5 2125.83 1369.34 2124.51 1357.91 2125.83 1346.47 2130.23 1340.31 2134.02 1338.03 2201.08 1208.31 2134.02 1078.58 2130.23 1076.3 2125.83 1070.14 2124.51 1058.71 2125.83 1047.27 2130.23 1041.11 2136.83 1037.15Z" stroke="#ED7D31" stroke-width="8" stroke-linecap="butt" stroke-linejoin="round" stroke-miterlimit="10" stroke-opacity="1" fill="#FFFF00" fill-rule="evenodd" fill-opacity="1"/><text fill="#000000" fill-opacity="0" font-family="Arial,Arial_MSFontService,sans-serif" font-size="345.395" direction="ltr" writing-mode="lr-tb" x="2124.51" y="1337.61">W</text></g></svg>