<?xml version="1.0" standalone="no"?>
<!DOCTYPE svg PUBLIC "-//W3C//DTD SVG 20010904//EN"
 "http://www.w3.org/TR/2001/REC-SVG-20010904/DTD/svg10.dtd">
<svg version="1.0" xmlns="http://www.w3.org/2000/svg"
 width="916.000000pt" height="916.000000pt" viewBox="0 0 916.000000 916.000000"
 preserveAspectRatio="xMidYMid meet">
<metadata>
Created by potrace 1.14, written by Peter Selinger 2001-2017
</metadata>
<g transform="translate(0.000000,916.000000) scale(0.100000,-0.100000)"
fill="#000000" stroke="none">
<path d="M1300 6360 c-8 -5 -26 -10 -40 -10 -26 0 -94 -40 -118 -69 -15 -18
-32 -57 -38 -86 -6 -29 -5 -145 1 -180 9 -47 69 -130 86 -120 4 3 13 -10 19
-29 6 -19 14 -36 18 -38 4 -2 40 -68 79 -148 40 -80 112 -221 161 -315 48 -93
139 -269 202 -390 62 -121 130 -252 151 -292 l39 -72 -18 -33 c-9 -18 -20 -35
-25 -36 -4 -2 -5 -8 -1 -13 3 -5 0 -9 -6 -9 -6 0 -9 -4 -5 -9 3 -5 1 -12 -4
-15 -5 -4 -38 -63 -73 -134 -34 -70 -65 -129 -68 -132 -3 -3 -35 -63 -70 -135
-36 -71 -68 -132 -73 -133 -4 -2 -5 -8 -1 -13 3 -5 0 -9 -6 -9 -6 0 -8 -4 -5
-10 3 -6 1 -10 -5 -10 -6 0 -9 -4 -6 -9 4 -5 2 -11 -2 -13 -5 -1 -28 -43 -52
-93 -24 -49 -54 -107 -67 -127 -13 -21 -23 -44 -23 -52 0 -8 -4 -16 -8 -18 -5
-1 -37 -60 -72 -131 -35 -70 -72 -135 -82 -145 -31 -29 -38 -36 -58 -61 -11
-13 -20 -29 -21 -35 0 -6 -2 -24 -5 -41 -14 -95 -2 -195 28 -238 11 -15 38
-39 59 -53 21 -13 50 -41 63 -63 14 -21 43 -48 65 -60 38 -19 126 -35 176 -32
31 2 100 10 103 12 1 1 5 2 10 3 52 12 120 85 129 140 4 22 100 221 125 257 9
14 15 29 11 33 -3 3 -1 6 6 6 7 0 10 4 7 9 -4 5 -3 11 2 13 4 1 34 57 67 123
33 66 62 122 65 125 3 3 39 70 79 150 40 80 78 151 83 158 6 6 7 12 3 12 -5 0
-1 8 7 18 8 9 37 62 64 117 27 55 52 102 56 103 5 2 6 8 2 13 -3 5 0 9 5 9 6
0 11 9 11 20 0 11 3 20 8 20 4 0 23 34 42 75 20 42 42 75 50 76 8 0 173 2 365
3 329 3 402 7 415 24 3 4 18 14 34 22 16 8 40 33 54 55 24 37 26 49 26 150 1
98 -2 115 -23 151 -13 23 -35 48 -50 55 -32 17 -49 33 -84 82 -16 20 -35 37
-43 37 -7 0 -14 4 -14 9 0 9 -10 14 -60 30 -8 2 -163 6 -345 8 -181 2 -335 5
-341 7 -6 2 -39 60 -74 127 -34 68 -82 160 -105 204 -23 44 -95 182 -159 307
l-117 227 633 3 633 3 45 25 c24 14 58 44 75 68 29 43 30 46 30 161 0 123 -1
125 -55 177 -53 51 -113 110 -127 126 -9 9 -36 27 -62 40 l-46 23 -860 2
c-532 2 -866 -1 -875 -7z"/>
<path d="M3559 6356 c-67 -12 -111 -33 -141 -70 -10 -12 -22 -26 -28 -33 -15
-18 -22 -70 -22 -156 0 -65 5 -88 27 -132 15 -29 37 -57 49 -63 11 -5 36 -40
55 -78 19 -38 37 -71 40 -74 3 -3 39 -70 78 -150 40 -80 108 -212 151 -295 43
-82 138 -267 211 -410 74 -143 138 -265 142 -271 5 -6 2 -20 -7 -32 -8 -12
-12 -22 -8 -22 4 0 0 -8 -8 -17 -8 -10 -37 -63 -64 -118 -27 -55 -52 -102 -57
-103 -4 -2 -5 -8 -1 -13 3 -5 0 -9 -6 -9 -6 0 -9 -4 -6 -9 4 -5 3 -11 -1 -13
-5 -1 -35 -57 -68 -123 -33 -66 -70 -137 -83 -157 -12 -21 -19 -38 -15 -38 5
0 3 -4 -3 -8 -5 -4 -35 -56 -65 -117 -29 -60 -58 -113 -64 -117 -7 -5 -7 -8 0
-8 6 0 6 -3 0 -8 -6 -4 -40 -65 -75 -137 -35 -71 -71 -138 -79 -147 -8 -10
-11 -18 -7 -18 4 0 -2 -12 -13 -26 -12 -15 -21 -33 -21 -40 0 -8 -4 -14 -8
-14 -14 0 -52 -36 -52 -49 0 -6 -4 -11 -9 -11 -26 0 -43 -160 -27 -247 7 -37
55 -113 71 -113 15 0 53 -35 80 -73 11 -16 40 -41 65 -55 42 -25 53 -27 160
-27 107 0 118 2 162 27 44 27 90 83 95 120 2 10 11 27 20 39 10 11 25 29 33
39 8 9 26 32 40 50 61 81 56 80 64 19 9 -66 36 -112 86 -145 20 -13 52 -45 70
-69 19 -25 39 -45 46 -45 6 0 16 -6 22 -13 14 -16 53 -21 172 -22 86 0 99 3
142 28 52 30 83 68 94 113 8 35 70 168 96 205 9 14 15 29 11 33 -3 3 -1 6 6 6
7 0 9 5 6 10 -3 6 -1 10 5 10 6 0 9 4 6 9 -4 5 -2 11 2 13 4 1 33 53 62 113
30 61 58 112 62 113 5 2 8 12 8 23 0 10 5 19 11 19 5 0 8 4 5 9 -4 5 -2 11 2
13 5 1 33 53 64 113 146 289 194 382 210 404 10 13 15 28 12 33 -3 4 0 8 6 8
6 0 9 4 6 9 -4 5 -3 11 2 13 4 1 30 48 57 103 28 55 64 114 80 131 77 80 85
103 80 241 -3 91 -14 117 -70 168 -18 17 -49 64 -70 105 -50 102 -48 97 -87
170 -19 36 -86 164 -148 285 -62 121 -134 261 -160 310 -163 311 -260 505
-260 521 0 26 -61 113 -85 120 -22 8 -32 17 -64 62 -32 45 -87 78 -147 87
-186 29 -321 -36 -340 -165 -6 -42 -6 -113 1 -160 6 -47 49 -120 75 -127 8 -3
22 -19 30 -36 9 -18 114 -225 235 -462 120 -236 231 -455 247 -485 l28 -55
-46 -7 c-25 -3 -52 -12 -61 -20 -23 -19 5 -69 -320 562 -228 442 -267 517
-303 585 -20 39 -40 84 -43 102 -7 34 -47 103 -60 103 -4 0 -17 9 -29 20 -12
10 -24 17 -28 15 -3 -2 -14 12 -25 31 -19 35 -95 93 -124 95 -9 0 -27 2 -41 5
-60 10 -79 10 -141 0z"/>
<path d="M5807 6354 c-65 -17 -137 -65 -137 -90 0 -7 -5 -14 -10 -16 -21 -7
-32 -143 -18 -219 10 -56 43 -113 71 -126 19 -9 36 -41 257 -468 68 -132 168
-325 222 -430 54 -104 122 -236 150 -292 l52 -101 -44 -89 c-25 -48 -52 -100
-62 -114 -10 -14 -15 -29 -11 -33 3 -3 1 -6 -6 -6 -7 0 -10 -4 -7 -9 4 -5 3
-11 -1 -13 -5 -1 -33 -52 -63 -113 -30 -60 -65 -127 -78 -147 -12 -21 -19 -38
-15 -38 5 0 4 -4 -2 -8 -5 -4 -39 -65 -75 -137 -36 -71 -68 -132 -71 -135 -3
-3 -32 -58 -63 -122 -31 -65 -61 -120 -67 -123 -5 -4 -7 -11 -4 -16 4 -5 1 -9
-5 -9 -6 0 -8 -4 -5 -10 3 -5 1 -10 -6 -10 -7 0 -9 -3 -6 -6 4 -4 -2 -19 -12
-33 -9 -14 -25 -42 -34 -61 -8 -19 -31 -49 -49 -66 -52 -49 -59 -61 -65 -112
-22 -161 7 -259 88 -301 15 -7 41 -33 58 -58 18 -25 41 -47 52 -50 10 -3 19
-9 19 -13 0 -19 102 -29 324 -30 328 -2 674 0 712 4 57 7 144 64 144 95 0 5 4
11 9 13 6 2 13 17 16 33 3 17 7 35 8 41 2 7 8 18 14 25 6 8 30 55 54 104 24
50 53 107 66 128 13 20 20 37 17 37 -4 0 0 8 8 18 8 9 37 62 64 117 27 55 55
106 61 113 7 7 13 22 13 32 0 10 3 20 8 22 6 3 79 141 221 423 31 61 59 112
64 113 4 2 5 8 1 13 -3 5 0 9 6 9 6 0 8 5 5 10 -3 6 -1 10 5 10 6 0 9 4 6 9
-4 5 -2 11 2 13 4 1 23 33 42 70 18 37 47 81 64 97 67 64 71 77 69 218 -1 100
-19 147 -69 179 -22 15 -58 80 -277 504 -44 85 -105 205 -137 265 -163 312
-308 603 -314 628 -10 44 -48 95 -84 114 -18 10 -44 35 -58 56 -14 21 -36 43
-49 49 -14 6 -25 15 -25 19 0 4 -12 10 -27 14 -16 5 -35 10 -43 13 -8 3 -220
6 -470 7 -346 2 -467 -1 -503 -11z m861 -736 c34 -68 97 -190 140 -273 43 -82
136 -262 206 -400 71 -137 139 -269 152 -291 22 -41 22 -42 4 -72 -10 -16 -16
-33 -13 -36 4 -3 1 -6 -6 -6 -7 0 -9 -4 -6 -10 3 -5 3 -10 -2 -10 -4 0 -21
-29 -38 -65 -16 -36 -33 -65 -36 -65 -4 0 -3 18 1 39 11 58 1 169 -17 205 -9
17 -31 45 -49 61 -20 19 -72 107 -137 231 -119 229 -124 238 -135 262 -15 29
-182 352 -233 449 -27 50 -49 94 -49 97 0 3 35 6 78 6 l77 0 63 -122z m365
-1308 c-3 -11 -10 -20 -15 -20 -5 0 -7 -4 -4 -9 4 -5 1 -11 -4 -13 -6 -2 -12
-11 -13 -20 -2 -9 -8 -22 -14 -29 -6 -8 -32 -59 -59 -114 -26 -55 -56 -112
-66 -127 -11 -16 -16 -28 -12 -28 4 0 1 -8 -7 -17 -8 -10 -39 -67 -69 -128
-30 -60 -61 -116 -68 -123 -7 -8 -10 -17 -7 -22 3 -5 1 -10 -3 -12 -5 -1 -34
-54 -66 -117 -31 -63 -61 -120 -67 -128 -6 -7 -8 -13 -3 -13 5 0 3 -4 -5 -9
-8 -5 -20 -7 -27 -4 -8 3 5 39 44 116 32 62 60 114 65 115 4 2 5 7 2 12 -3 5
1 14 8 22 7 7 37 63 67 123 30 61 63 122 73 138 10 15 15 27 12 27 -3 0 2 12
13 28 10 15 51 91 91 170 42 85 84 154 104 172 17 16 33 30 34 30 0 0 -1 -9
-4 -20z"/>
</g>
</svg>
